<?xml version="1.0" standalone="no"?>
<!DOCTYPE svg PUBLIC "-//W3C//DTD SVG 20010904//EN"
 "http://www.w3.org/TR/2001/REC-SVG-20010904/DTD/svg10.dtd">
<svg version="1.0" xmlns="http://www.w3.org/2000/svg"
 width="260.000000pt" height="260.000000pt" viewBox="0 0 260.000000 260.000000"
 preserveAspectRatio="xMidYMid meet">
<metadata>
Created by potrace 1.14, written by Peter Selinger 2001-2017
</metadata>
<g transform="translate(0.000000,260.000000) scale(0.100000,-0.100000)"
fill="#000000" stroke="none">
<path d="M317 2302 c-9 -2 -17 -13 -18 -25 0 -12 -1 -474 -1 -1027 l-1 -1005
1026 -1 c736 -1 1027 2 1028 10 1 6 2 469 2 1028 2 963 1 1018 -15 1019 -23 1
-85 1 -98 0 -6 -1 -11 -134 -12 -363 l-3 -362 -360 0 -360 -1 -1 -50 c0 -27 2
-56 4 -62 3 -10 85 -13 363 -13 l359 0 0 -540 0 -540 -539 0 c-422 0 -540 3
-543 12 -2 7 -3 61 -3 121 l2 107 -63 0 -63 0 1 -107 c0 -60 -1 -114 -1 -120
-1 -10 -68 -13 -301 -13 l-300 0 0 420 1 420 299 0 c279 0 300 -1 301 -17 0
-10 0 -64 0 -120 l0 -103 62 0 63 0 -1 303 0 302 -62 1 -62 1 0 -101 c1 -55 1
-110 0 -121 -1 -21 -6 -21 -298 -20 l-298 0 0 420 0 420 297 0 c258 0 298 -2
299 -15 0 -8 1 -62 2 -120 l2 -105 60 0 60 0 0 118 c0 97 3 117 15 118 8 1
168 2 355 3 187 1 345 4 350 8 6 3 9 32 7 65 l-4 58 -767 0 c-422 0 -775 -1
-784 -3z"/>
</g>
</svg>
